<svg xmlns="http://www.w3.org/2000/svg" xmlns:xlink="http://www.w3.org/1999/xlink" version="1.1" x="0px" y="0px" style="enable-background:new 0 0 64 64;" xml:space="preserve" viewBox="7 7 50 49.9">
<g><path fill="#925B46" d="M7,33h4c0.2,5,2.2,9.6,5.4,13.1l-2.8,2.8C9.7,44.7,7.3,39.1,7,33z M13.6,15.1l2.8,2.8c-3.2,3.5-5.2,8.1-5.4,13.1H7   C7.3,24.9,9.7,19.3,13.6,15.1z M57,31h-4c-0.2-5-2.2-9.6-5.4-13.1l2.8-2.8C54.3,19.3,56.7,24.9,57,31z M32,51c-10.5,0-19-8.5-19-19   s8.5-19,19-19s19,8.5,19,19S42.5,51,32,51z M46.1,16.5c-3.5-3.2-8.1-5.2-13.1-5.4V7c6.1,0.2,11.7,2.7,15.9,6.6L46.1,16.5z M31,11.1   c-5,0.2-9.6,2.2-13.1,5.4l-2.8-2.8C19.3,9.7,24.9,7.3,31,7V11.1z M17.9,47.5c3.5,3.2,8.1,5.2,13.1,5.4v4   c-6.1-0.2-11.7-2.7-15.9-6.6L17.9,47.5z M33,52.9c5-0.2,9.6-2.2,13.1-5.4l2.8,2.8c-4.2,3.9-9.8,6.4-15.9,6.6V52.9z M47.5,46.1   c3.2-3.5,5.2-8.1,5.4-13.1h4c-0.2,6.1-2.7,11.7-6.6,15.9L47.5,46.1z"></path></g></svg>
