<svg class="house house--1" xmlns="http://www.w3.org/2000/svg" viewBox="0 0 22.72 34.53">
  <path class="dark" d="M5.93,18.89c-.67.09-2.27.43-2.22,1.19.6,3.19-.12,6.68,1.2,9.68,1.22-1.24-.52-9.18-.17-9.52l17.68-.68v8.5l-20.06,6.46-.66-13.75c-.09-.48-2.45.46-1.45-2.14C4.17,13.61,6.89,6.01,10.57,1.09c2.49-3.33,3.6,1.87,4.65,3.75,1.84,3.29,4.39,6.7,6.02,9.96.22.44,1.45,3.12,1.47,3.3.04.45-.18.52-.46.79-5.11.48-11.36-.64-16.32,0Z" fill="#32331a"></path>
  <path class="light" d="M12.48,2.03c-.14-.12-1.06-.11-1.27.02-.54.32-4.99,10.03-5.15,11.5L11.67,3.69c.41.17,2.22,3.19,2.61,3.85,1.46,2.46,2.54,5.77,3.95,7.95.95,1.46,1.71.63,1.17-.83-1.45-3.91-4.49-7.62-6.49-11.2-.24-.43-.37-1.39-.43-1.43Z" fill="#e4e0d0"></path>
  <path class="light" d="M16.57,22.08c-.29-.24-1.78-.11-1.98.52-.11.35.4,5.13.84,5.22,2.28.45,1.56-5.4,1.15-5.74Z" fill="#e4e0d0"></path>
  <path class="light" d="M7.42,22.39v5.27c0,.55,1.6.72,1.73-.33.11-.86-.35-6.3-1.73-4.94Z" fill="#e4e0d0"></path>
</svg>
