<svg class="house house--2" xmlns="http://www.w3.org/2000/svg" viewBox="0 0 20.88 34.94">
  <path class="dark" d="M20.84,31.2l-19.38,3.74c.11-2.78-1.18-14.34-.03-16.1.79-1.21,15.74-2.45,18.06-2.11,2.05,4.5,1.15,9.65,1.34,14.46Z" fill="#32331a"></path>
  <path class="dark" d="M15.75,14.2c.46.5.62-.03.68-.5.12-.99-.45-3.2.91-3.54,2.03-.51,2.39,5.32,1.25,5.7-3.68.19-7.48.24-11.13.77-1.5.22-5.44,1.55-6.43,1.25-1.53-.46-1.19-6.04-.03-6.37,2.25-.65,1.56,5.25,2.84,4.06.24-.23,1.72-5.55,1.95-6.39.64-2.39.92-5.73,1.68-7.84.71-1.93,1.76-1.56,2.83-.23,1.7,2.11,3.15,5.6,4.09,8.15.29.78,1.18,4.75,1.36,4.94Z" fill="#32331a"></path>
  <path class="light" d="M15.98,23.12c-.39-.24-3.07-.24-3.32.51-.39,1.19,1.16,3.87.65,5.39-.07,1.42,3.14.57,3.35-.04.23-.66-.32-5.63-.68-5.86Z" fill="#e4e0d0"></path>
  <path class="light" d="M6.17,24.77c.35,1.24,0,6.11.9,6.42.85.29,2.42.04,2.47-1.12.02-.51-.51-4.33-.72-4.72-.52-.97-1.68-.49-2.66-.58Z" fill="#e4e0d0"></path>
</svg>
