<svg  xmlns="http://www.w3.org/2000/svg" viewBox="0 0 258.43 271.07">
<g>
  <path fill="#c9ab8c" d="M209.86,137.45c-.08,2.85-.15,5.96-.34,8.83-.29,4.28-1.24,8.47-1.71,12.72,3.61-.9,7.24-1.82,10.78-2.96,1.6-.51,6.18-1.82,7.33-2.52.73-.45,1.62-5.75,1.82-7.01,1.35-8.49,1.3-18.49.79-27.08-.39-6.52-1.46-13.01-2.45-19.45-5.91-2.07-12.06-3.61-18.28-4.47,1.95,13.81,2.45,27.96,2.05,41.94Z"/>
  <path fill="#c9ab8c" d="M67.92,156.62c.32-2.09-.3-4.3-.35-6.27-.27-9.43.51-18.77.01-28.19-.11-2-.61-4.25-.68-6.28l-24.02,10.27c-1.17,7.75-2.24,15.87-.69,23.6l25.72,6.87Z"/>
  <path fill="#c9ab8c" d="M36.01,147.79l.34-18.33c-4.81,1.13-15.77,8.32-20.49,6.74-.27-.09-.45-.22-.5-.52-.81-5.09-2.74-18.47-8.79-19.73-2.98-.62-4.45,1.8-5.03,4.32-1.9,8.24,4.06,13.53,3.6,21.59-.35,6.03-5.95,14.6-5.02,19.6.76,4.13,5.46,2.73,7.9.93,5.35-3.97,9.41-13.05,9-19.69l19.01,5.09Z"/>
  <path fill="#c9ab8c" d="M156.03,35.23c.71-.86,3.87-5.08,2.7-5.91-1.16-.82-2.08,1.33-2.67,1.86-10.4,9.39-29.35,2.03-27.82-12.88.74-7.24,7.04-12.64,14.08-13.42,1.04-.11,5.47.2,5.87-.41,1.49-2.22-6.1-4.27-7.6-4.4-18.44-1.58-31.22,19.99-19.19,34.81,9.14,11.26,25.31,11.61,34.61.34Z"/>
  <path fill="#c9ab8c" d="M82.21,94.67l.66,13.73,20.03-6.45v-8.49l-17.66.68c-.35.33,1.39,8.27.17,9.5-1.32-3-.6-6.48-1.2-9.67-.06-.76,1.55-1.11,2.22-1.19,4.96-.64,11.19.48,16.3,0,.28-.27.5-.34.46-.79-.02-.18-1.25-2.86-1.47-3.3-1.63-3.26-4.18-6.66-6.02-9.94-1.05-1.88-2.16-7.07-4.65-3.74-3.68,4.92-6.39,12.51-10.31,17.53-1,2.59,1.37,1.66,1.45,2.13Z"/>
  <path fill="#c9ab8c" d="M173.51,124.21c.51,13.12,1.33,25.55.34,38.68-.03.37-.11,1.87.19,1.89.96-.5,3.56.03,3.85-.9,1.13-7.54,1.47-15.09,1.73-22.71.45-12.84.56-26.88-1.44-39.61-.42-2.68-1.01-5.39-1.64-8.03l-6.41.3c.6,6.5,2.97,13.41,3.41,19.85.23,3.41-.16,7.1-.03,10.55Z"/>
  <path fill="#c9ab8c" d="M256.77,132.74c6.92-12.89-9.34-24.01-19.58-28.08l.51,43.46,8.59-5.15c3.59-2.98,8.23-6.04,10.48-10.23Z"/>
  <path fill="#c9ab8c" d="M201.06,94.52l-.26.85c1.89,11.1,2.11,22.33,2.58,33.57.32,7.69.9,14.58.35,22.38-.2,2.88-.84,5.77-1.01,8.66.19.19,3.85-.48,4.02-.73.26-.39,1.3-8.15,1.41-9.28,1.08-11.59.76-27.03.02-38.7-.13-2.05-1.37-15.25-2.13-16.03-.34-.35-4.62-.94-4.97-.72Z"/>
  <path fill="#c9ab8c" d="M140.23,115.72c-.25-6.42.14-12.83-1.01-19.2l-5.11.87c.95,6.76,1.4,13.55,1.72,20.35.49,10.59.57,21.29,1.01,31.92l-1.36,16.81h4.42c.83-12.37,1.24-24.76,1.03-37.19-.08-4.46-.54-9.1-.71-13.55Z"/>
  <path fill="#c9ab8c" d="M130.41,81.74c-2.32-.34-17.25.9-18.04,2.11-1.14,1.75.14,13.3.03,16.08l19.35-3.74c-.19-4.81.71-9.95-1.34-14.44Z"/>
  <path fill="#c9ab8c" d="M179.08,80.52c-4.43,1.16-2.47,1.5-1.91,4.72.18,1.05.51,5.97,1.08,6.39,7.61.66,15.45.14,22.94,1.51-.19-2.29,1.17-9.47.11-11.14-.29-.46-5.4-1.85-6.31-2.01-4.62-.81-11.35-.65-15.91.54Z"/>
  <path fill="#c9ab8c" d="M227.51,152.88c.13.14,3.22-1.05,3.33-1.59.56-5.1,1.95-10.11,2.44-15.22.68-6.99.19-14.05.35-21.06l-1.09-12.66-5.04-1.75c2.99,17.16,3.72,35.19,0,52.28Z"/>
  <path fill="#c9ab8c" d="M111.97,82.88c.99.3,4.92-1.03,6.43-1.25,3.64-.54,7.43-.58,11.11-.77,1.14-.37.78-6.2-1.25-5.69-1.36.34-.79,2.54-.91,3.54-.06.48-.22,1-.68.5-.17-.19-1.07-4.15-1.35-4.93-.94-2.55-2.39-6.03-4.08-8.14-1.07-1.34-2.12-1.7-2.83.22-.77,2.1-1.04,5.43-1.68,7.83-.23.84-1.7,6.15-1.94,6.38-1.28,1.19-.59-4.7-2.84-4.05-1.17.34-1.5,5.91.03,6.37Z"/>
  <path fill="#c9ab8c" d="M67.64,115.73c2.32,11.5.82,23.31,1.29,34.96.03.72.3,1.35.35,2.03.24,3.27-1.21,5.03,3.4,4.92l-1.36-43.46c-.19-.21-3.55.99-3.68,1.56Z"/>
  <path fill="#c9ab8c" d="M175.9,80.56c8.13-2.39,17.17-3,25.12.34v-5.94c0-.25-.95-.98-1.49-.83-1.35.39-.82,5.63-3.6,3.53-.74-.56-3.02-4.81-3.58-5.92-.62-1.23-2.6-6.81-3.44-7.09-.79-.27-1.49-.03-1.97.65-.82,1.19-1.99,5.83-2.84,7.68-.54,1.17-2.09,4.7-3.3,4.88-2.2.33-2.03-2.92-3.71-2.75-1.63.16-1.13,4.3-1.19,5.46Z"/>
  <path fill="#c9ab8c" d="M236.96,148.75c.15-14.97-.26-29.95-1.35-44.88-.22-.72-1.04-.57-1.65-.56,1.67,16.11,1.47,32.1-2.38,47.87l5.38-2.43Z"/>
  <path fill="#c9ab8c" d="M142.1,268.68c-8.05-.14-16.09-.93-24.1-1.71-1.22-.12-2.69-.22-3.91-.17.3,3.21,1.71,3.37,4.58,3.57,10.27.73,24.38.96,34.64.32,2.2-.14,7.39-.3,7.98-2.71-6.37.47-12.79.8-19.2.69Z"/>
  <path fill="#c9ab8c" d="M26.02,78.25c-.47.98-1.19,1.89-1.02,3.05,1.65.23,1.84-1.76,3.05-2.37.58.43-.12,5.49,1.53,5.09,1.21-.3.6-3.84.52-4.75.86.59,1.56,1.21,2.71,1.02l-2.04-2.71c6.46-.09,6.85-3.71,0-2.38l1.7-4.07c-.64-.68-2.03,2.31-2.28,2.63-.22.28,0,.62-.78.43-.03-.8-.39-5.21-.71-5.41-.11-.07-.95-.06-.99-.02-.3.29.71,5.19.34,6.11l-3.73-2.03c-.32,1.13,3.26,2.52,2.38,3.39-.23.23-6.22.8-6.45,1.03-.05.05-.05,1.3,0,1.35.4.42,4.84-.54,5.77-.33Z"/>
  <path fill="#c9ab8c" d="M37.41,148.26c.19.72,3.38,1.15,3.36.72-.66-1.95-.25-4.08-.33-6.12-.03-.8-.35-1.55-.37-2.35-.1-4.37-.03-8.78.69-13.08-3.26.27-3.22,1.72-3.41,4.57-.36,5.26.26,10.96.06,16.27Z"/>
  <path fill="#c9ab8c" d="M52.2,36.54c-.12.18-2.89,3.01-1.18,2.72,1.23-.21,2.31-2.82,3.9-2.72-.15.61.42,5.11.85,5.09,1.84-.22.28-4.12.51-4.42l2.71,1.02-1.02-2.03c5.11-1.23,3.09-2.35-1.02-2.04l2.38-3.05c-.83-.65-2.66,2.16-3.4,2.37v-4.92c0-.5-1.02-.5-1.02,0v4.92c-.82.06-3.11-2.32-3.73-1.7-.82.82,2.21,2.47,2.03,2.71-1.54.73-4.6-.45-4.08,2.04h3.06Z"/>
  <path fill="#c9ab8c" d="M66.23,168.16l1.35-2.71c-.99-.16-1.61.58-2.37,1.02-.13-.17.38-4.74-1.02-3.73-1.17.84,1.44,7.3-3.4,2.38-.21,1.32,1.24,1.73,1.69,2.71-4.09-.32-3.29.9,0,1.37l-2.38,3.05c1.14.13,1.81-.93,2.71-1.36-.88,5.48,2.24,4.56,2.38-.34,1.7,1.68,3.34,2.23,1.69-.68,2.36-.26,1.82-2.34-.67-1.7Z"/>
  <path fill="#c9ab8c" d="M24.47,155.6c1.25-2.55.14-3.74-1.19-1.02-.61.02-.69-2.91-.86-3.05-.04-.03-.97-.03-1.01,0l.68,3.73-2.03-1.01.68,2.37c-2.74-.33-4.98,1.35-.68,1.36.19.16-1.47,2.04.22,2.35.67.12,1.01-1.21,1.82-.99-.35.59.27,4.56,1.36,3.73.78-.59-.15-3.77,0-4.75.76.44,1.38,1.18,2.37,1.02l-1.36-2.03c4.77-.25,5.15-2.83,0-1.7Z"/>
  <path fill="#c9ab8c" d="M253.23,155.6c1.25-2.55.14-3.74-1.19-1.02-.61.02-.69-2.91-.86-3.05-.04-.03-.97-.03-1.01,0l.68,3.73-2.03-1.01.68,2.37c-2.74-.33-4.98,1.35-.68,1.36.19.16-1.47,2.04.22,2.35.67.12,1.01-1.21,1.82-.99-.35.59.27,4.56,1.36,3.73.78-.59-.15-3.77,0-4.75.76.44,1.38,1.18,2.37,1.02l-1.36-2.03c4.77-.25,5.15-2.83,0-1.7Z"/>
  <path fill="#c9ab8c" d="M88.64,44.58c-.66.89-2.26,1.24-2.03,2.71,1.23.13,2.01-.95,3.05-1.36v3.74c1.91.19,1.75-2.02,1.7-3.39l1.35.34-1.02-1.69c3.56.34,5.12-1.16.68-1.7l1.02-2.37-2.37,1.7c-.02-1.26.44-2.97-1.36-2.71v3.05c-.28.32-2.58-1.79-3.4-1.35l1.02,1.69c-.38-.03-1.91.2-2.02.37-.96,1.54,2.38.88,3.37,1Z"/>
  <path fill="#c9ab8c" d="M236.52,89.48c-.96,1.54,2.38.88,3.37,1-.66.89-2.26,1.24-2.03,2.71,1.23.13,2.01-.95,3.05-1.36v3.74c1.91.19,1.75-2.02,1.7-3.39l1.35.34-1.02-1.69c3.56.34,5.12-1.16.68-1.7l1.02-2.37-2.37,1.7c-.02-1.26.44-2.97-1.36-2.71v3.05c-.28.32-2.58-1.79-3.4-1.35l1.02,1.69c-.39-.03-1.91.2-2.02.37Z"/>
  <path fill="#c9ab8c" d="M159.94,184.12c1.45-.03,3.75.29,3.73-1.7h-2.71c-.25-.23,1.74-3-.17-2.39-.22.07-1.32,2.23-1.86,2.38.12-.49-.45-5.11-1.36-4.07l.33,4.07c-.52.13-.19-.48-.59-.66-.49-.23-1.24-.34-1.79-.35l1.7,1.69c-3.87.07-4.16,2.37-.16,1.37l-1.53,2.87c.96,1.3,1.48-.51,2.37-.84.25,4.39,2.18,2.93,1.7-.68l1.69.34-1.36-2.03Z"/>
  <path fill="#c9ab8c" d="M213.58,29.64c-.34.69-1.29.67-1.55,1.67-.7,2.66,2.79-.83,2.91-.66-.04.52-.21,2.58.85,2.37.99-.19-.3-2.79,1.87-2.04l-.68-1.69c2.21.34,5.01-1.79,1.36-2.04l.68-1.69c-1.32-.31-1.53,1.35-2.71,1.35l-.86-3.39c-.82-.16-.48.66-.5,1.18-.03.85.03,1.7,0,2.55-1.84-2.15-2.87-2.52-1.35.68-3.38.18-3.81,2.02,0,1.7Z"/>
  <path fill="#c9ab8c" d="M23.01,183.17c-3.84.87.45,6.99,2.39,3.08,1.01-2.04-.2-3.57-2.39-3.08Z"/>
  <path fill="#c9ab8c" d="M80.15,174.44c1.11-.54,1.38-3.06.52-3.91-.56-.55-2.68-.45-3.15.09-.87,1-.07,5.12,2.64,3.82Z"/>
  <path fill="#c9ab8c" d="M44.17,97.02c2.88,1.3,5.01-4.88.24-3.82-1.93.43-1.61,3.2-.24,3.82Z"/>
  <path fill="#c9ab8c" d="M69.79,77.84c1.39-3.08-2.34-3.43-3.48-2.29-1.96,1.95,1.99,5.58,3.48,2.29Z"/>
  <path fill="#c9ab8c" d="M225.28,73.77c2.24-.38,2.66-4.68-.58-4.02-2.4.49-2.35,4.51.58,4.02Z"/>
  <path fill="#c9ab8c" d="M162.74,208.85c2.14-.41,2.54-4.35-.86-3.61-2.38.52-1.27,4.03.86,3.61Z"/>
  <path fill="#c9ab8c" d="M163,65.8c2.32,1.02,3.04-2.38,1.95-3.49-2.12-2.13-4.53,2.35-1.95,3.49Z"/>
  <path fill="#c9ab8c" d="M236.96,51.14c1-1.89-.85-2.66-2.44-2.1-2.22.77.58,5.64,2.44,2.1Z"/>
  <path fill="#c9ab8c" d="M59.53,62.65c-1.82,1.55,2.18,4.99,2.91,1.36.36-1.79-1.97-2.16-2.91-1.36Z"/>
  <path fill="#c9ab8c" d="M191.88,25.36c-2.07-.63-2.48,1.28-1.69,2.88,1.86.39,2.57-1.4,1.69-2.88Z"/>
  <path fill="#c9ab8c" d="M145.97,68.63c.44-.25,1.39-2.45-.14-2.68-3.06-.48-1.33,3.51.14,2.68Z"/>
  <path fill="#c9ab8c" d="M233.38,71.34c1.62-.46.85-2.76-.87-2.28-1.54.43-.76,2.74.87,2.28Z"/>
  <path fill="#c9ab8c" d="M34.4,152.79c.64-1.32-.25-2-1.56-1.56-1.49.49.48,3.81,1.56,1.56Z"/>
  <path fill="#c9ab8c" d="M121.24,208.25c-.17.24.16,1.33.41,1.59,1.72,1.78,3.34-2.97-.41-1.59Z"/>
  <path fill="#c9ab8c" d="M121.1,216.07c-1.23.4-.3,2.71.97,2.34.9-.26.88-2.95-.97-2.34Z"/>
  <path fill="#c9ab8c" d="M52.34,90.03c1.06.67,2.61-1.26,1.67-1.84-1.8-1.13-2.59,1.27-1.67,1.84Z"/>
  <path fill="#c9ab8c" d="M162.32,200.76c-.11.11-.07,1.61.32,1.88.95.69,2.38-1.06,1.38-1.72-.29-.19-1.61-.26-1.71-.16Z"/>
  <path fill="#c9ab8c" d="M25.03,112.87c-1.5.4-.56,2.5.27,2.32,1.02-.22,1.35-2.76-.27-2.32Z"/>
  <path fill="#c9ab8c" d="M122.8,200.11c-1.14.36-.23,2.12.6,1.98,1.16-.18,1.31-2.58-.6-1.98Z"/>
  <path fill="#c9ab8c" d="M176.69,43.27c-1.5-.4-1.12,1.74-.79,1.98.84.61,2.68-1.48.79-1.98Z"/>
  <path fill="#c9ab8c" d="M46.88,109.42c1.03,1.04,2.65-1.76,1.18-2.03-.86-.16-1.52,1.69-1.18,2.03Z"/>
  <path fill="#c9ab8c" d="M115.12,186.5h-1.7c-.29,2.36,2,2.31,1.7,0Z"/>
  <path fill="#c9ab8c" d="M132.43,173.93v-1.7c-2.42-.26-2.01,1.7,0,1.7Z"/>
  <path fill="#c9ab8c" d="M77.13,194.77c.49,1.56,1.92-.54,1.32-1.15-.31-.31-1.77-.3-1.32,1.15Z"/>
  <path fill="#c9ab8c" d="M106.97,158.82c-.05.8-.89,5.06-.68,5.27l28.52,2.38,1.03-19.88c-.85-9.83-.82-19.71-1.37-29.53-.36-6.5-.66-13.04-1.74-19.48-9.25-.09-17.9,3.81-26.89,5.46-.85.34-.62,1.65-.57,2.48,1.12,18.25,2.8,34.86,1.69,53.31ZM125.64,112.32c3.25,1.13,5.39,6.36,4.37,9.45-.32.99-4.04.53-5.07.41-1.04-.72.98-6.12-2.22-6.3-.4-.02-1.16.16-1.16.51v5.77c-.23.76-5.2.9-6.11.85-.68-6,3.29-13.09,10.18-10.69ZM124.29,132c0-1.58-.32-6.78,0-7.81.3-.97,5.17-.38,5.47.03.41.56.44,6.72.32,7.8-.04.34-.15,1.17-.53,1.17h-4.92c.19-.43-.34-1.01-.34-1.19ZM115.53,124.1c.58-.81,2.97-.23,3.84-.15.7.07,1.17-.72,1.84.27.58.85.57,8.46.05,8.82-.24.16-5.41,1.23-5.62.15-.12-1.77-.97-7.88-.1-9.09ZM113.09,136.25c3.21-.2,6.47-.87,9.68-1.02,1.43-.07,7.4-.24,8.17.31.55.39,1.3,3.02,1.14,3.55-.18.59-1.93.82-2.53.88-4.75.48-10.42-.06-15.28.35-1.4-.27-1.2-2.9-1.18-4.07Z"/>
  <path fill="#c9ab8c" d="M140.91,96.34l-.28.38c1.46,8.39,1.11,16.96,1.31,25.45.29,12.47.61,24.86-.33,37.33-.17,2.31-.56,4.69-1.01,6.96l10.37.02,21.88-1.71c.72-7.18.58-14.36.36-21.57-.29-9.35-.38-19.95-1.04-29.18-.46-6.44-2.77-13.41-3.55-19.88-.6-.85-2.57-.02-3.41,0-8.14.31-16.23,1.07-24.29,2.2ZM152.99,119.62c1.62-4.14,6.88-5.06,8.21-.08.56,2.11.82,6.16.79,8.4-.01,1-.19,3.48-.35,4.4-.05.28-.28.85-.51.85-2.38,0-4.75.01-7.13,0-.35,0-.62.76-1.34-.36-1.62-2.54-.78-10.39.33-13.21ZM166.71,138.82c0,.42-.15.64-.55.76l-15.91.4c-1.4-.27-1.2-2.9-1.18-4.07l13.75-1.7c.71-.03,2.65,0,3.13.42.26.22.75,3.66.75,4.19Z"/>
  <path fill="#c9ab8c" d="M236.14,201.8c-8.31-1.39-17.04,11.66-24.59,13.56l6.85-11.99c3.26-9.18,14.4-20.43,16.09-29.75.82-4.56-3.16-2.67-5.09-.32-5.38,6.55-6.68,15.41-9.64,22.95-2.08,5.28-5.69,9.92-8.06,15.06-.11.23-.34.39-.59.36-.36-.04-.25-.34-.24-.88.09-6.62,2.41-11.5.45-18.76-2.14-7.93-9.58-6.05-9.28,1.12.15,3.62,2.27,6.86,3.42,10.17,4.43,12.79.91,18.19-7.15,27.84-2.51,3.01-5.49,6.45-9.16,7.99,1.09-3.89-1.41-5.8-4.76-3.23-3.72,2.85-5.35,9.01-7.74,12.97-2.53,4.2-6.18,6.71-10.24,9.28-.21-.29.23-3.26.37-3.87.85-3.52,4.32-5.76,6.22-9.06,2.38-4.14,1.59-4.93,5.66-8.26,3.2-2.62,14.14-9.29,15.08-12.76,1.33-4.91-3.74-3.84-6.62-2.55-1.17.52-3.15,2.31-3.92,2.54-.5.15-.58-.04-.51-.51,2.45-4.9,4.7-9.95,7.3-14.78,2.17-4.03,9.18-13.11,7.39-17.56-1.23-3.04-4.65-.97-6,.95-2.42,3.44-1.78,7.96-2.31,11.95-4,9-8.22,21.47-13.43,29.69-.19.3-.32.75-.74.78.24-2.8.95-5.56,1.31-8.36.33-2.61.18-6.23.88-8.63.89-3.05,3.93-8.04,5.33-11.3,6.26-14.58,12.22-29.34,15.95-44.83.48-.96,2.37-.56,3.01-1.06.32-.25.92-5.5,1.01-6.46.76-8.44.05-16.11-.33-24.45-.54-11.88-.97-23.71-2.72-35.48l-21.05-.68c.61,5.63,1.92,11.16,2.38,16.81,1.05,13.02.96,29.09-.34,42.1-.39,3.92-1.22,7.81-1.7,11.71l7.81-.68c.22.22-1,5.29-1.18,6.11-.33,1.51-1.36,6.49-2.05,7.45-.29.4-.6.8-1.17.69-.23-1.18-.2-2.63-.51-3.75-.17-.6-.1-.79-.85-.66v4.41s-2.72-2.37-2.72-2.37c-.46.93,2.51,3.32,2.03,3.73-1.92.04-4.35-.1-6.11.86.04,1.13,2.34.28,2.94.29.82.01,1.64.35,2.49.21-3.1,3.31-3.27,5.71,1.02,1.69v5.94l-7.1,18.97c-3.2.59-5.11,2.96-5.47,6.16-.2,1.77.41,3.72.33,5.08-.04.59-2.34,5.59-2.7,5.81-.63.39-1.78-.9-2.7.35-.7.96.62,2.83.16,4.55-.2.77-4.82,8.73-5.28,8.99-1.14.63-3-.14-4.23-.18-5.85-.19-11.81.38-17.66.34-3.79-.03-7.6.19-11.38-.16-1.5-.68-7.85-12.97-8.89-15.21-1.56-3.38-3.67-8.08-4.7-11.6-.58-1.98-.38-3.88-.83-5.29-.25-.78-1.26-1.43-1.72-2.35-1.18-2.38-2.36-7.66-3.13-10.46-2.64-9.64-4.85-19.76-5.54-29.76.08-.44.95,0,1.32-.24.98-.62.14-17.78.41-20.17l-3.07-36.82c1.11-.21,1.17.24,1.32,1.22,1.29,8.94,1.56,17.79,2.08,26.79.47,8.1,1.24,15.57,1.03,23.78-.04,1.56-.73,3.78-.37,5.36.11.47,2.79,1.24,3.07-.28.37-1.98-.14-5.27-.01-7.48.75-13.03.54-24.32-.33-37.33-.32-4.81-.86-9.62-1.02-14.43-10.55,1.95-20.55,6.12-30.7,9.47l1.14,44.97c.18.78,9.97,1.89,11.25,2.82,3.67,16.4,7.49,32.81,12.53,48.85.45,1.43,3.4,8.65,3.4,9.16v5.26l-5.59-12.57c-1.34-1.96-4.71-8.99-7.14-9.12-2.51-.14-1.6,4.13-1.2,5.58,2.18,7.93,7.33,10.63,11.15,16.69.52.83,3.11,6.11,2.77,6.56-2.39-2.4-5.37-6.99-8.89-7.92-5.09-1.35-4.93,2.86-1.98,5.72,3.59,3.47,8.15,4.42,11.69,9.02,1.95,2.54,2.11,4.9,3.46,7.4.41.75,1.54,1.76,1.67,2.08.2.49-.21,1.12-.12,1.77.15,1.13,1.04,1.58,1.23,2.2.19.65,0,1.42.22,2.15.34,1.13,2.12,1.66,1.55,3.37-5.13-.85-10.93-4.33-12.32-9.57-.68-2.56-.88-11.45-3.88-12.09-4.34-.93-1.86,6.74-1.24,8.73.16.52.36.83-.38.71-5.59-7.13-13.03-11.74-12.35-21.85.42-6.29,4.32-11.5,4.96-16.77.73-5.96-4.41-4.91-6.98-.87-4.01,6.3-2.4,12.95-1.45,19.67.06.42.18,1.08-.48.81-.34-.14-2.61-2.86-2.82-3.3-1.98-4.13-1.47-18.56-1.45-23.71,0-1.39.42-2.78.37-4.42-.05-1.4-.49-5.76-1.95-6.2-2.58-.79-3.87,2.24-4.53,4.17-2.58,7.51-.11,14.37,1.48,21.64.07.34.54,1.04-.11.95-2.69-4.44-7.3-9.06-9.64-13.62-4.55-8.85-7.02-19.78-13.8-27.62-3.55-4.1-7.79-4.98-6.35,1.93,2.43,11.61,13.51,21.33,20.6,29.98,2.95,3.59,5.25,7.81,8.49,11.2-1.98-.76-3.2-2.72-4.74-4.08-5.31-4.68-14.45-11.97-21.61-12.69-6.78-.68-8.88,4.57-3.69,8.78,7.72,6.26,25.32,7.95,34.42,14.47,2.69,1.93,7.57,8.01,9.87,10.84.29.35.89,1.06.86,1.51-7.14-2.37-15.01-6.63-22.75-5.77-5.11.57-5.02,4.58-.74,6.85,7.8,4.13,18.05,2.04,26.47,2.39l7.7,8.25c-.32.49-.65.47-1.16.53-7.71.8-14.15-1.47-21.41-1.71-6.12-.2-8.81,3.81-2.78,6.51,7.82,3.5,19.51-.6,27.24-3.11.51.03,3.37,2.8,4.07,3.37.67.55,3.11,1.65,1.71,2.06-3.06.89-17.03,1.42-18.02,3.04-1.23,2.01,1.8,2.79,3.15,2.97,3.38.46,7.22-.25,10.45-1.26,1.72-.53,6.66-3.18,7.77-3.07.84.09,2.14,1.23,3.16,1.62,1.17.45,4.31.74,4.84,1.27.35.35.36.99.67,1.37.81.99,1.65,1.23,1.94,3.1.06.41-.38,1.32-.23,1.47.32.31,7.69-.17,9,.34l1.19.33,15.8.33c6.21.13,12.39.42,18.66.01.59-.04,3.77-.38,3.93-.49.29-.2.22-.88.43-1.09,3.09-3.19,12.36-11.21,16.26-12.43,9.73-3.03,17.4.74,26.24-.24,2.82-.31,5.05-2.39,2.11-4.49-3.84-2.74-12.77-2.89-17.3-2.21-2.26.34-4.48,1.33-6.71,1.44,1.38-1.13,2.23-2.74,3.57-3.9.58-.5,4.66-3.19,5.17-3.32,1.81-.48,6.45-.19,8.74-.42,4.69-.48,14.75-1.6,18.48-4.26,3.64-2.6,1.34-5.11-2.53-4.92-6.02.3-13.7,7.34-20.53,5.96,5.12-4.89,8.66-11.07,12.77-16.77,8.89-2.47,18.99-3.68,26.11-10.22,1.88-1.73,5.49-6.7.99-7.46ZM191.5,120.1c.09-.63.22-1.28.94-1.46.44-.12,4.19.27,4.46.85-.4,1.93,1.07,9.49.24,10.67-.35.48-5.1,1.07-5.21-.26.4-3.02-.81-6.97-.42-9.79ZM182.73,117.01c-.19-.59-.12-2.93-.02-3.66,1.06-7.69,13.27-8.69,14.49-.97.13.81.31,4.31-.24,4.69-.8.55-4.42-.44-5.76.11-.69-.88-.6-5.27-1.26-5.42-2.51-.55-1.39,4.78-2.38,5.49-.64.46-4.55.63-4.84-.25ZM183.03,129.62v-10.7c1.67.28,3.54-.51,5.02.07.5.71.63,10.61.26,11.15-.29.42-5.28.89-5.28-.53ZM183.75,138.91c-.63-1.36-.34-2.91-.38-4.36,4.42-.41,8.9-1,13.34-.95.94-.05,1.31,3.86,1.23,4.13-.07.26-.28.43-.54.5l-13.65.68ZM175.01,207.54c3.21-7.81,6.19-15.71,8.42-23.87.78-1.49,1.25.54,2.31.44.26-1.5-1.51-2.01-1.35-3.39.71-.1,3.55.34,3.73-.52.24-1.16-2.9-1.04-3.05-1.19-.58-.6,3.66-14.15,3.4-16.28l7.79-1.03c-3.58,15.74-9.95,30.6-16.23,45.39l-3.45,6.9c.65-2.14-1.84-4.81-1.57-6.46ZM170.46,239.8l-5.77-1.02c-.32-.48,2.03-3.84,2.54-3.73.33.07,3.51,4.51,3.23,4.75ZM170.03,234.46c-1.06-1.95-1.16-3.35.1-4.95.31-.39.93-.2.97.3.16,1.87.37,5.25.37,5.25-.78.13-1.23-.19-1.45-.59ZM169.1,221.47c1.44,3.13,1.58,4.56-.34,7.47-.54.38-2.33-2.39-2.31-2.83.02-.36,2.35-4.87,2.65-4.64ZM160.2,237.18c.62-1.47,2.78-4.98,3.73-6.45.21-.33-.04-.61.76-.44-.01,1.14,1.56,2.02,1.2,3.04-.13.36-3.13,4.65-3.38,4.8-.84.5-1.66.31-2.57.31-.09-.48.09-.84.27-1.26ZM157.39,242.85l12.06,1.03c.32.29-.83,1.81-1.19,2.03l-.39-.68-11.33-.68c-.05-.79-.1-1.65.85-1.71ZM128.02,242.52l26.49.34c.15.95-.2,1.39-1.17,1.37l-25.31-.36v-1.35ZM125.65,242.52c.06.04.35,1.09.68,1.36h-9.85c-.07,0-.32-1.13-.34-1.36,1.41.29,8.9-.39,9.51,0ZM109.18,212.64l5.98,14.05,6.75,11.75h-8.83c-.26-1.82-3.66-5.52-3.74-6.99-.04-.75,2.28-4.5,2.57-5.89,1.1-5.2-3.76-2.06-4.77.66-.81,0-1.73-2.3-1.79-2.97-.18-1.87,3.44-8.3,3.83-10.62ZM86.38,148.76c-.39.13-3.33.12-3.47,0-.04-.04-.39-1.08-.39-1.14,0-1.39-.28-5.11,0-6.11.08-.28.44-.43.77-.44.35,0,3.18.17,3.27.32-.06,1.35,1.14,6.94-.18,7.38ZM86.63,136.11c-.07.79.8,2.35-.37,3.02-.83.48-4.83,1.04-5.09-.34-.89-4.6,3.42-11.72,8.57-10.96,4.24.62,5.51,5.27,5.68,8.93.2,4.29-2.21,2.56-5.43,2.88-.41-.41,1.23-4.83-.82-6.14-2.1-1.34-2.4.9-2.54,2.6ZM93.92,148.49c-.41.59-4.27.48-4.27-.19v-6.62c1.05.31,3.51-.72,4.1.23.41.66.51,6.08.16,6.59ZM102.05,215.01c-6.21-17.39-10.14-35.53-14.42-53.49-.15-.74.31-.49.8-.46,2.73.18,6.19,1.35,8.99,1.71.85,10.6,3.21,21.01,5.91,31.26.58,2.22,2.94,8.31,2.95,9.99,0,1.19-.97,1.35-1.5,2.18-1.71,2.69-1.62,5.92-2.74,8.8ZM104.59,233.01c-.51.55-.6-.05-.67-.51-.31-2.13-.64-4.65.5-6.61.16,0,1.43,2.69,1.45,2.93.02.22-1.14,4.03-1.29,4.19ZM105.95,239.12c-.26-.24,1.32-4.13,1.63-4.65.19-.32.62-1.13,1.08-.78.23.17,2.2,4.44,2.38,5.09l-5.09.34ZM107.99,243.88c-.07-1.08.74-.97,1.51-1.04,1.18-.1,4.98-.47,4.94,1.04h-6.45Z"/>
  <path fill="#c9ab8c" d="M114.44,138.28l16.3-.34c.13-1.09-.17-1.26-1.17-1.37-1.58-.18-14.61.15-15.13.7-.07.07.04.74,0,1.01Z"/>
  <polygon fill="#c9ab8c" points="150.43 138.28 165.03 137.61 165.03 135.56 150.43 136.58 150.43 138.28"/>
  <path fill="#c9ab8c" d="M196.61,134.89c-.4-.43-10.21.93-11.71.68-.49.06-.12,1.5.64,1.34l11.07-.66c-.06-.33.08-1.27,0-1.36Z"/>
</g>
</svg>
