<?xml version="1.0" encoding="UTF-8"?>
<svg xmlns="http://www.w3.org/2000/svg" viewBox="0 0 258.79 271.45">
  <g>
    <path fill="#756B3F" d="M56.01,33.53c.74-.22,2.56-3.03,3.4-2.38l-2.38,3.05c4.12-.3,6.14.82,1.02,2.05l1.02,2.03-2.71-1.02c-.23.3,1.33,4.2-.51,4.42-.44.01-1-4.49-.86-5.1-1.59-.1-2.67,2.51-3.9,2.72-1.71.29,1.07-2.54,1.19-2.72h-3.06c-.53-2.5,2.54-1.31,4.08-2.05.18-.24-2.86-1.89-2.04-2.71.63-.62,2.91,1.76,3.74,1.7v-4.93c0-.5,1.02-.5,1.02,0v4.93Z"/>
    <path fill="#756B3F" d="M65.3,166.7c.76-.44,1.38-1.18,2.37-1.02l-1.36,2.72c2.5-.64,3.04,1.44.68,1.71,1.65,2.91.01,2.36-1.69.68-.14,4.91-3.27,5.83-2.39.34-.9.43-1.57,1.49-2.71,1.36l2.38-3.05c-3.29-.46-4.1-1.69,0-1.37-.46-.98-1.91-1.4-1.7-2.72,4.84,4.93,2.23-1.54,3.4-2.38,1.4-1.01.89,3.57,1.02,3.74Z"/>
    <path fill="#756B3F" d="M22.45,151.74c.17.13.24,3.07.86,3.05,1.33-2.72,2.44-1.53,1.19,1.02,5.16-1.13,4.77,1.45,0,1.71l1.36,2.03c-.99.16-1.62-.58-2.37-1.02-.16.99.78,4.17,0,4.76-1.09.83-1.7-3.15-1.36-3.74-.82-.22-1.16,1.12-1.82.99-1.68-.31-.03-2.19-.22-2.35-4.3-.02-2.06-1.69.68-1.36l-.68-2.38,2.04,1.02-.68-3.74s.97-.03,1.01,0Z"/>
    <path fill="#756B3F" d="M251.54,151.74c.17.13.24,3.07.86,3.05,1.33-2.72,2.44-1.53,1.19,1.02,5.16-1.13,4.77,1.45,0,1.71l1.36,2.03c-.99.16-1.62-.58-2.37-1.02-.16.99.78,4.17,0,4.76-1.09.83-1.7-3.15-1.36-3.74-.82-.22-1.16,1.12-1.82.99-1.68-.31-.03-2.19-.22-2.35-4.3-.02-2.06-1.69.68-1.36l-.68-2.38,2.04,1.02-.68-3.74s.97-.03,1.01,0Z"/>
    <path fill="#756B3F" d="M91.14,42.59l2.37-1.7-1.02,2.37c4.44.54,2.89,2.05-.68,1.71l1.02,1.7-1.36-.34c.05,1.37.21,3.59-1.7,3.4v-3.74c-1.04.4-1.83,1.49-3.06,1.36-.22-1.48,1.37-1.82,2.04-2.71-1-.12-4.34.55-3.38-1,.11-.17,1.63-.4,2.02-.37l-1.02-1.69c.82-.43,3.12,1.67,3.4,1.36v-3.06c1.81-.25,1.34,1.46,1.37,2.72Z"/>
    <path fill="#756B3F" d="M242.61,88.56l2.37-1.7-1.02,2.37c4.44.54,2.89,2.05-.68,1.71l1.02,1.7-1.36-.34c.05,1.37.21,3.59-1.7,3.4v-3.74c-1.04.4-1.83,1.49-3.06,1.36-.22-1.48,1.37-1.82,2.04-2.71-1-.12-4.34.55-3.38-1,.11-.17,1.63-.4,2.02-.37l-1.02-1.69c.82-.43,3.12,1.67,3.4,1.36v-3.06c1.81-.25,1.34,1.46,1.37,2.72Z"/>
    <path fill="#756B3F" d="M159.14,182.67c.55-.15,1.65-2.32,1.87-2.39,1.92-.61-.08,2.16.17,2.39h2.72c.02,2-2.28,1.67-3.74,1.71l1.36,2.03-1.7-.34c.48,3.62-1.46,5.07-1.71.68-.9.33-1.42,2.14-2.38.84l1.53-2.88c-4,1-3.71-1.3.16-1.37l-1.7-1.69c.55.01,1.3.12,1.79.35.39.19.06.79.59.66l-.34-4.08c.91-1.04,1.48,3.59,1.36,4.08Z"/>
    <path fill="#756B3F" d="M216.61,26.95c1.18,0,1.4-1.66,2.71-1.36l-.68,1.69c3.66.26.86,2.39-1.36,2.05l.68,1.7c-2.18-.75-.89,1.85-1.88,2.04-1.06.2-.89-1.85-.85-2.38-.12-.17-3.62,3.32-2.92.66.26-1,1.21-.99,1.56-1.67-3.82.31-3.39-1.53,0-1.71-1.51-3.2-.48-2.83,1.36-.68.03-.85-.03-1.7,0-2.55.02-.52-.32-1.35.5-1.18l.86,3.4Z"/>
  </g>
</svg>
