<svg id="Layer_2" data-name="Layer 2" xmlns="http://www.w3.org/2000/svg" viewBox="0 0 483.49 56.24">
  <g id="Layer_1-2" data-name="Layer 1">
    <g>
      <g>
        <path fill="#f5f3e9" d="M62.2,45.76c-.74.43-2.13.85-3.25.85-.81,0-1.78-.08-2.67-.31l.04-.39c3.33-1.51,3.52-3.6,3.52-10.72v-.7c0-7.66-.08-9.98-3.52-11.57l-.04-.39c.5-.19,1.59-.31,2.51-.31,1.04,0,2.67.23,3.41.89,1.16-.62,3.95-1.28,7.62-1.28,7.74,0,13.23,4.22,13.23,12.23,0,8.44-5.42,12.92-13.78,12.92-3.29,0-4.99-.5-7.08-1.24ZM77.68,34.19c0-6.77-3.13-9.67-8.2-9.67-3.56,0-4.84,1.78-4.84,4.18v10.33c0,4.49.93,5.3,4.64,5.3,5.73,0,8.4-3.79,8.4-10.14ZM71.6,30.63c.66,1.93,2.17,3.52,3.02,4.49l-.12.46c-1.24.5-3.06,1.2-4.6,2.94l-.5-.12c-.62-1.93-2.09-3.6-2.98-4.53l.12-.39c1.28-.46,3.13-1.2,4.64-2.98l.43.12Z"/>
        <path fill="#f5f3e9" d="M89.56,33.99c0-7.27-.12-9.56-3.41-11.07l-.04-.39c.58-.19,1.86-.31,2.79-.31,1.2,0,2.32.23,3.02.89.93-.66,2.94-.89,5.88-.89,2.51,0,3.79.16,5.15.66,1.28-.5,1.78-.58,2.09-.66l.39.08c.04.12.08.27.08.66,0,.46-.19,1.01-.5,1.51.12.58.23,1.12.23,1.93,0,1.01-.35,2.24-1.12,3.44l-.42-.12c.08-2.63-1.35-4.99-4.76-4.99s-4.45,2.17-4.61,8.32c.7-.43,1.43-.54,2.17-.5,1.74.12,3.75,1.35,4.99,1.35s2.05-.5,2.24-1.62l.46.08q.04.23.04.46c0,2.67-1.35,4.92-3.56,4.92-2.32,0-4.18-2.36-5.77-2.52h-.58c.12,7.55,1.32,8.82,5.88,8.82,2.36,0,5.15-2.13,5.84-4.68h.35c.19.74.35,1.43.35,2.13,0,1.32-.35,2.52-.97,3.64.19.39.27.85.27,1.28,0,.15-.04.35-.08.5-.04.15-.08.35-.19.46l-.39-.04c-.15-.35-2.01-.74-6.08-.74s-5.53-.04-7.39-.89c-.39.54-2.21.89-3.33.89-.93,0-1.93-.12-2.48-.31l.04-.39c3.29-1.47,3.41-3.83,3.41-11.18v-.74Z"/>
        <path fill="#f5f3e9" d="M137.69,32.37l.54.08c0,1.51-.74,5.15-4.06,5.15-1.78,0-3.44-.7-4.91-1.43.04,6.38.35,8.36,3.52,9.75l.04.39c-.54.19-1.59.31-2.55.31-1.2,0-2.51-.31-3.41-.85-.85.58-1.9.85-3.37.85-.97,0-2.01-.12-2.55-.31l.04-.39c3.33-1.47,3.48-3.6,3.52-10.87v-.74c-1.7,0-2.75.5-3.02,1.62l-.5-.15c0-2.01,1.32-3.52,3.52-3.83-.08-5.77-.5-7.62-3.52-9.02l-.04-.39c.35-.19,1.08-.31,1.66-.31,2.48,0,3.29.43,4.26.89,1.16-.43,2.36-.89,7.39-.89,4.26,0,5.34-.23,5.61-.43l.39.08c.04.15.08.31.08.5,0,.46-.23.97-.5,1.35.16.54.23,1.12.23,1.66,0,1.2-.39,2.4-1.2,3.56l-.35-.12c-.43-1.35-.7-4.14-4.41-4.14-3.48,0-4.6,1.74-4.8,7.82,2.09.58,3.95,1.43,5.69,1.47,1.39,0,2.48-.5,2.71-1.62Z"/>
        <path fill="#f5f3e9" d="M159.86,45.76c-.74.5-2.24.85-3.44.85-.7,0-1.74-.12-2.24-.31l-.04-.39c1.28-.62,1.82-1.43,1.82-2.83,0-1.01-.27-2.17-.77-3.79-.58.81-1.59,1.35-3.21,1.35-1.82,0-3.25-.66-4.64-1.24-.43,1.51-.66,2.79-.66,3.68,0,1.35.5,2.21,1.82,2.83v.39c-.58.19-1.51.31-2.09.31-.97,0-2.13-.35-2.55-.85-.39.5-1.78.85-2.71.85-.7,0-1.82-.12-2.25-.31l.04-.39c3.25-1.32,4.18-2.79,5.84-7.31-.23-.04-.5-.08-.74-.08-1.12,0-2.51.39-2.79,1.63l-.5-.16c0-2.24,1.66-3.91,4.37-3.91.15,0,.35,0,.5.04l.5-1.35.97-2.71c1.08-2.98,1.55-4.37,1.55-5.84,0-2.25-1.04-3.1-2.79-3.21l-.12-.43c.58-.19,1.7-.35,2.79-.35s2.79.16,3.71.77c.85-.62,2.28-.77,3.48-.77s2.48.16,3.13.35v.39c-2.01.54-2.86,1.28-2.86,2.32,0,.89.62,2.48.81,3.06l2.09,6.62c2.36,7.31,3.17,9.6,6.58,10.95l.04.39c-.39.19-1.24.31-1.93.31-1.2,0-2.75-.35-3.71-.85ZM154.68,37.63c-.12-.46-.27-.93-.43-1.43l-2.71-8.75-2.86,7.85-.5,1.43c1.66.62,3.17,1.47,4.72,1.47.73,0,1.35-.19,1.78-.58Z"/>
        <path fill="#f5f3e9" d="M187.26,33.8c0-7.31-.19-9.29-3.52-10.87,0-.12-.04-.27-.04-.39.46-.19,1.35-.31,2.17-.31.93,0,1.93.31,2.55.81.74-.5,1.86-.81,2.98-.81.58,0,1.35.08,1.74.31v.39c-3.44,1.59-3.56,3.6-3.56,10.95,0,8.32-.04,10.37,3.56,12.04v.39c-.39.23-1.16.31-1.74.31-1.12,0-2.24-.31-2.98-.81-.62.5-1.62.81-2.55.81-.81,0-1.7-.12-2.17-.31,0-.12.04-.27.04-.39,2.44-1.16,3.17-2.48,3.41-6l-14.32-12v6.58c0,7.74-.08,9.91,3.41,11.42,0,.12.04.27.04.39-.46.19-1.43.31-2.13.31-1.35,0-2.17-.31-2.63-.85-.58.54-1.59.85-2.59.85-.77,0-1.66-.12-2.13-.31,0-.12.04-.27.04-.39,3.37-1.51,3.52-3.71,3.52-11.26v-2.71c0-5.73-.46-7.58-3.52-9.02,0-.12-.04-.27-.04-.39.46-.19,1.35-.31,2.13-.31.85,0,2.05.43,2.59.85.46-.27.77-.66,1.24-.81.58-.19,1.39.04,3.02,1.51l11.49,10.02Z"/>
        <path fill="#f5f3e9" d="M205.75,45.76c-.74.43-2.32.85-3.41.85-.97,0-2.01-.12-2.51-.31v-.39c3.56-1.59,3.56-3.25,3.56-11.11v-2.05c0-6.96-.08-8.2-2.55-8.2s-3.13,2.98-2.98,4.84l-.35.12c-1.24-1.2-1.74-2.48-1.74-3.68,0-.54.12-1.12.31-1.62-.31-.5-.5-1.12-.5-1.7,0-.35.04-.62.12-.85l.39-.08c.19.31,1.04.81,4.22.81h11.07c3.17,0,4.02-.5,4.22-.81l.39.08c.08.23.12.5.12.85,0,.58-.23,1.2-.54,1.7.19.5.31,1.04.31,1.59,0,1.2-.54,2.48-1.7,3.71l-.35-.12c.16-1.86-.58-4.84-2.98-4.84-2.63,0-2.67,1.24-2.67,8.2v2.05c0,7.86,0,9.52,3.52,11.11l.04.39c-.54.19-1.59.31-2.51.31-1.08,0-2.71-.43-3.44-.85Z"/>
        <path fill="#f5f3e9" d="M235.66,45.76c-.74.5-2.24.85-3.44.85-.7,0-1.74-.12-2.24-.31l-.04-.39c1.28-.62,1.82-1.43,1.82-2.83,0-1.01-.27-2.17-.77-3.79-.58.81-1.59,1.35-3.21,1.35-1.82,0-3.25-.66-4.64-1.24-.43,1.51-.66,2.79-.66,3.68,0,1.35.5,2.21,1.82,2.83v.39c-.58.19-1.51.31-2.09.31-.97,0-2.13-.35-2.55-.85-.39.5-1.78.85-2.71.85-.7,0-1.82-.12-2.25-.31l.04-.39c3.25-1.32,4.18-2.79,5.84-7.31-.23-.04-.5-.08-.74-.08-1.12,0-2.51.39-2.79,1.63l-.5-.16c0-2.24,1.66-3.91,4.37-3.91.15,0,.35,0,.5.04l.5-1.35.97-2.71c1.08-2.98,1.55-4.37,1.55-5.84,0-2.25-1.04-3.1-2.79-3.21l-.12-.43c.58-.19,1.7-.35,2.79-.35s2.79.16,3.71.77c.85-.62,2.28-.77,3.48-.77s2.48.16,3.13.35v.39c-2.01.54-2.86,1.28-2.86,2.32,0,.89.62,2.48.81,3.06l2.09,6.62c2.36,7.31,3.17,9.6,6.58,10.95l.04.39c-.39.19-1.24.31-1.93.31-1.2,0-2.75-.35-3.71-.85ZM230.48,37.63c-.12-.46-.27-.93-.43-1.43l-2.71-8.75-2.86,7.85-.5,1.43c1.66.62,3.17,1.47,4.72,1.47.73,0,1.35-.19,1.78-.58Z"/>
        <path fill="#f5f3e9" d="M241.81,47.19c0-1.9.89-4.33,5.15-6.38l.31.35c-1.08,1.51-1.35,3.06-1.35,4.41,0,3.64,1.97,5.53,5.65,5.53,4.18,0,6.08-2.44,6.08-5.5,0-8.28-13.85-6.73-13.85-16.6,0-5.26,3.99-7.31,8.63-7.31,2.67,0,4.95.7,5.73,1.32.93-.12,2.4-.93,2.71-1.62l.43.08c.08.12.12.35.12.58,0,.89-.66,1.86-1.35,2.63.15.62.27,1.24.27,1.9,0,1.24-.39,2.55-1.32,3.83l-.39-.12c-.31-4.26-2.75-5.84-5.92-5.84-2.94,0-4.72,1.32-4.72,3.44,0,5.96,13.85,4.76,13.85,16.37,0,6.54-4.33,9.63-10.37,9.63-5.61,0-9.64-2.71-9.64-6.69Z"/>
        <path fill="#f5f3e9" d="M270.79,45.76c-.77.46-2.36.85-3.44.85-.97,0-1.97-.12-2.48-.31l.04-.39c3.44-1.51,3.52-3.91,3.52-11.3s0-10.14-3.52-11.69l-.04-.39c.5-.19,1.51-.31,2.48-.31,1.08,0,2.67.39,3.44.85.81-.46,2.4-.85,3.52-.85.93,0,1.94.12,2.44.31l-.04.39c-3.48,1.55-3.52,3.99-3.52,11.34s0,10.1,3.52,11.65l.04.39c-.5.19-1.51.31-2.44.31-1.12,0-2.71-.39-3.52-.85Z"/>
        <path fill="#f5f3e9" d="M296.25,32.37l.54.08c0,1.62-.27,5.53-3.68,5.53-2.01,0-3.79-.77-5.42-1.59.19,6.5,1.51,7.66,5.84,7.66,2.36,0,5.03-2.13,5.73-4.68h.46c.19.74.35,1.43.35,2.13,0,1.32-.35,2.52-.97,3.64.19.39.27.85.27,1.28,0,.31-.08.74-.27.97l-.39-.04c-.15-.35-2.01-.74-6.08-.74s-5.53-.04-7.39-.89c-.39.54-2.21.89-3.33.89-.93,0-1.93-.12-2.48-.31l.04-.39c3.41-1.55,3.41-2.79,3.41-10.76v-.46c-1.63.04-2.59.54-2.86,1.63l-.5-.16c0-1.93,1.28-3.48,3.37-3.83-.04-6.69-.23-7.93-3.41-9.4l-.04-.39c.58-.19,1.86-.31,2.79-.31,1.2,0,2.32.23,3.02.89.93-.66,2.94-.89,5.88-.89,2.51,0,3.79.16,5.15.66,1.28-.5,1.78-.58,2.09-.66l.39.08c.04.12.08.27.08.66,0,.46-.19,1.01-.5,1.51.12.58.23,1.12.23,1.93,0,1.01-.35,2.24-1.12,3.44l-.42-.12c.08-2.63-1.35-4.99-4.76-4.99s-4.41,2.09-4.61,8.09c2.17.62,4.1,1.51,5.88,1.55,1.39,0,2.48-.62,2.71-2.01Z"/>
        <path fill="#f5f3e9" d="M306.93,23.08c.77-.62,2.05-.85,3.48-.85.74,0,2.01.12,2.63.31v.39c-1.08.54-1.78,1.39-1.78,2.86,0,1.55.73,3.91,1.97,7.78l2.4,7.47,2.32-6.31c1.24-3.33,2.51-7.16,2.51-9.02,0-1.24-.66-2.09-2.24-2.79l-.04-.39c.46-.19,1.24-.31,1.74-.31.97,0,2.05.23,2.51.85.23-.5,2.09-.85,2.9-.85s1.66.12,2.05.31l-.04.39c-1.94.85-3.29,1.86-4.18,4.49l-4.33,12.65c-.5,1.47-.62,2.59-.62,3.41,0,1.39.74,2.25,2.05,2.36l.04.43c-.5.19-1.24.35-2.44.35-.81,0-2.82-.5-3.37-1.16-.46.7-2.17,1.16-3.17,1.16s-1.74-.08-2.52-.35v-.39c1.2-.62,1.82-1.04,1.82-2.44,0-.54-.16-1.66-.54-2.9l-1.7-5.22c-2.71-8.36-3.64-10.91-6.96-12.38l-.04-.39c.46-.19,1.47-.31,2.17-.31,1.2,0,2.63.35,3.37.85Z"/>
        <path fill="#f5f3e9" d="M345.62,45.76c-.74.5-2.24.85-3.44.85-.7,0-1.74-.12-2.24-.31l-.04-.39c1.28-.62,1.82-1.43,1.82-2.83,0-1.01-.27-2.17-.77-3.79-.58.81-1.59,1.35-3.21,1.35-1.82,0-3.25-.66-4.64-1.24-.43,1.51-.66,2.79-.66,3.68,0,1.35.5,2.21,1.82,2.83v.39c-.58.19-1.51.31-2.09.31-.97,0-2.13-.35-2.55-.85-.39.5-1.78.85-2.71.85-.7,0-1.82-.12-2.25-.31l.04-.39c3.25-1.32,4.18-2.79,5.84-7.31-.23-.04-.5-.08-.74-.08-1.12,0-2.51.39-2.79,1.63l-.5-.16c0-2.24,1.66-3.91,4.37-3.91.15,0,.35,0,.5.04l.5-1.35.97-2.71c1.08-2.98,1.55-4.37,1.55-5.84,0-2.25-1.04-3.1-2.79-3.21l-.12-.43c.58-.19,1.7-.35,2.79-.35s2.79.16,3.71.77c.85-.62,2.28-.77,3.48-.77s2.48.16,3.13.35v.39c-2.01.54-2.86,1.28-2.86,2.32,0,.89.62,2.48.81,3.06l2.09,6.62c2.36,7.31,3.17,9.6,6.58,10.95l.04.39c-.39.19-1.24.31-1.93.31-1.2,0-2.75-.35-3.71-.85ZM340.44,37.63c-.12-.46-.27-.93-.43-1.43l-2.71-8.75-2.86,7.85-.5,1.43c1.66.62,3.17,1.47,4.72,1.47.73,0,1.35-.19,1.78-.58Z"/>
        <path fill="#f5f3e9" d="M371.63,45.76c-.74.5-2.24.85-3.44.85-.7,0-1.74-.12-2.24-.31l-.04-.39c1.28-.62,1.82-1.43,1.82-2.83,0-1.01-.27-2.17-.77-3.79-.58.81-1.59,1.35-3.21,1.35-1.82,0-3.25-.66-4.64-1.24-.43,1.51-.66,2.79-.66,3.68,0,1.35.5,2.21,1.82,2.83v.39c-.58.19-1.51.31-2.09.31-.97,0-2.13-.35-2.55-.85-.39.5-1.78.85-2.71.85-.7,0-1.82-.12-2.25-.31l.04-.39c3.25-1.32,4.18-2.79,5.84-7.31-.23-.04-.5-.08-.74-.08-1.12,0-2.51.39-2.79,1.63l-.5-.16c0-2.24,1.66-3.91,4.37-3.91.15,0,.35,0,.5.04l.5-1.35.97-2.71c1.08-2.98,1.55-4.37,1.55-5.84,0-2.25-1.04-3.1-2.79-3.21l-.12-.43c.58-.19,1.7-.35,2.79-.35s2.79.16,3.71.77c.85-.62,2.28-.77,3.48-.77s2.48.16,3.13.35v.39c-2.01.54-2.86,1.28-2.86,2.32,0,.89.62,2.48.81,3.06l2.09,6.62c2.36,7.31,3.17,9.6,6.58,10.95l.04.39c-.39.19-1.24.31-1.93.31-1.2,0-2.75-.35-3.71-.85ZM366.44,37.63c-.12-.46-.27-.93-.43-1.43l-2.71-8.75-2.86,7.85-.5,1.43c1.66.62,3.17,1.47,4.72,1.47.73,0,1.35-.19,1.78-.58Z"/>
        <path fill="#f5f3e9" d="M384.47,45.76c-.77.77-2.98.85-3.91.85s-1.62-.12-2.01-.31l.04-.39c3.52-1.62,3.52-3.75,3.52-11.96,0-7.2-.12-9.48-3.52-11.03l-.04-.39c.46-.19,1.28-.31,2.36-.31.77,0,2.79.19,3.56.89.85-.7,2.94-1.39,6.11-1.39,4.41,0,8.63,1.12,8.63,5.84,0,4.26-4.18,6.81-8.17,7.39,7.08-.27,7.66,10.37,12.23,10.37.27,0,.54-.04.89-.15l.31.5c-.85,1.08-2.44,1.28-3.64,1.28-8.75,0-7.2-10.41-13.97-10.6,0,6.31.19,8.13,3.52,9.56l.04.39c-.39.19-1.04.31-2.09.31-.81,0-2.94-.04-3.87-.85ZM390.55,24.01c-2.05,0-3.68.97-3.68,5.84v3.95c5.34-.19,7-3.44,7-6.23,0-2.44-1.28-3.56-3.33-3.56Z"/>
        <path fill="#f5f3e9" d="M410.63,45.76c-.73.43-2.13.85-3.25.85-.81,0-1.78-.08-2.67-.31l.04-.39c3.33-1.51,3.52-3.6,3.52-10.72v-.7c0-7.66-.08-9.98-3.52-11.57l-.04-.39c.5-.19,1.59-.31,2.52-.31,1.04,0,2.67.23,3.4.89,1.16-.62,3.95-1.28,7.62-1.28,7.74,0,13.23,4.22,13.23,12.23,0,8.44-5.42,12.92-13.78,12.92-3.29,0-4.99-.5-7.08-1.24ZM426.1,34.19c0-6.77-3.13-9.67-8.2-9.67-3.56,0-4.84,1.78-4.84,4.18v10.33c0,4.49.93,5.3,4.64,5.3,5.73,0,8.4-3.79,8.4-10.14ZM420.03,30.63c.66,1.93,2.17,3.52,3.02,4.49l-.12.46c-1.24.5-3.06,1.2-4.6,2.94l-.5-.12c-.62-1.93-2.09-3.6-2.98-4.53l.12-.39c1.28-.46,3.13-1.2,4.64-2.98l.42.12Z"/>
        <path fill="#f5f3e9" d="M450.95,32.37l.54.08c0,1.62-.27,5.53-3.68,5.53-2.01,0-3.79-.77-5.42-1.59.19,6.5,1.51,7.66,5.84,7.66,2.36,0,5.03-2.13,5.73-4.68h.46c.19.74.35,1.43.35,2.13,0,1.32-.35,2.52-.97,3.64.19.39.27.85.27,1.28,0,.31-.08.74-.27.97l-.39-.04c-.15-.35-2.01-.74-6.08-.74s-5.53-.04-7.39-.89c-.39.54-2.21.89-3.33.89-.93,0-1.93-.12-2.48-.31l.04-.39c3.4-1.55,3.4-2.79,3.4-10.76v-.46c-1.62.04-2.59.54-2.86,1.63l-.5-.16c0-1.93,1.28-3.48,3.37-3.83-.04-6.69-.23-7.93-3.4-9.4l-.04-.39c.58-.19,1.86-.31,2.79-.31,1.2,0,2.32.23,3.02.89.93-.66,2.94-.89,5.88-.89,2.51,0,3.79.16,5.15.66,1.28-.5,1.78-.58,2.09-.66l.39.08c.04.12.08.27.08.66,0,.46-.19,1.01-.5,1.51.12.58.23,1.12.23,1.93,0,1.01-.35,2.24-1.12,3.44l-.43-.12c.08-2.63-1.35-4.99-4.76-4.99s-4.41,2.09-4.61,8.09c2.17.62,4.1,1.51,5.88,1.55,1.39,0,2.48-.62,2.71-2.01Z"/>
        <path fill="#f5f3e9" d="M463.48,45.76c-.77.77-2.98.85-3.91.85s-1.62-.12-2.01-.31l.04-.39c3.52-1.62,3.52-3.75,3.52-11.96,0-7.2-.12-9.48-3.52-11.03l-.04-.39c.46-.19,1.28-.31,2.36-.31.77,0,2.79.19,3.56.89.85-.7,2.94-1.39,6.11-1.39,4.41,0,8.63,1.12,8.63,5.84,0,4.26-4.18,6.81-8.17,7.39,7.08-.27,7.66,10.37,12.23,10.37.27,0,.54-.04.89-.15l.31.5c-.85,1.08-2.44,1.28-3.64,1.28-8.75,0-7.2-10.41-13.97-10.6,0,6.31.19,8.13,3.52,9.56l.04.39c-.39.19-1.04.31-2.09.31-.81,0-2.94-.04-3.87-.85ZM469.56,24.01c-2.05,0-3.68.97-3.68,5.84v3.95c5.34-.19,7-3.44,7-6.23,0-2.44-1.28-3.56-3.33-3.56Z"/>
      </g>
      <g>
        <path fill="#c9ab8c" d="M23.41,24.48c.69.74.92-.04,1.01-.75.18-1.48-.66-4.76,1.36-5.26,3.02-.76,3.55,7.91,1.85,8.47-5.47.28-11.12.35-16.54,1.15-2.24.33-8.09,2.3-9.57,1.86-2.28-.68-1.77-8.97-.04-9.48,3.34-.97,2.32,7.81,4.23,6.03.36-.34,2.56-8.24,2.89-9.49.95-3.56,1.36-8.52,2.5-11.65,1.05-2.87,2.61-2.33,4.21-.33,2.52,3.14,4.68,8.32,6.08,12.12.43,1.17,1.76,7.06,2.02,7.34Z"/>
        <path fill="#c9ab8c" d="M38.73,4.08l3.53-2.52-1.51,3.53c6.61.8,4.29,3.05-1.01,2.54l1.51,2.52-2.01-.5c.07,2.04.31,5.34-2.53,5.05v-5.56c-1.55.6-2.72,2.22-4.55,2.02-.33-2.19,2.04-2.71,3.03-4.04-1.48-.18-6.44.81-5.02-1.48.16-.26,2.43-.59,3-.55l-1.51-2.52c1.21-.64,4.63,2.49,5.05,2.02V.04c2.69-.38,2,2.16,2.03,4.04Z"/>
        <path fill="#c9ab8c" d="M28.99,28.24c-3.46-.51-25.68,1.34-26.85,3.13-1.7,2.61.2,19.8.04,23.93l26.17.93c1.82.06,3.32-1.4,3.29-3.22-.11-7.62-.03-19.01-2.66-24.77ZM13.67,48.59c-.31,1.69-2.68,1.74-3.87,1.14-1.27-.63.25-7.74-.01-9.63,1.42.32,3.22-.15,3.79,1.39.23.61.23,6.34.09,7.09ZM24.38,48.45c-.43.86-5.35,1.46-4.95-.63,1.07-2.13-.66-6.4.15-8.07.52-1.06,4.46-.51,4.99-.08.49.41.28,7.84-.19,8.77Z"/>
      </g>
    </g>
  </g>
</svg>
